<svg id="Capa_1" enable-background="new 0 0 510 510" height="512" viewBox="0 0 510 510" width="512" xmlns="http://www.w3.org/2000/svg"><g><path d="m367.408 238.253 80.029 79.664c-4.171 106.625-92.216 192.083-199.845 192.083l-14.824-207.063 14.824-192.937z" fill="#2fc0f0"/><path d="m247.592 110v400c-17.259 0-34.014-2.197-50-6.327l-146.934-158.672c-2.015-11.368-3.066-23.064-3.066-35.001 0-38.5 10.97-75.89 31.72-108.12l1.36-2.12 99.66-78.18 2.4-.82c20.83-7.14 42.65-10.76 64.86-10.76z" fill="#9ee2f8"/><path d="m382.5 0c-44.062 0-79.908 35.847-79.908 79.908 0 64.771 68.407 113.292 71.319 115.326l9.254 6.463 8.772-7.102c2.878-2.329 70.471-57.702 70.471-114.687 0-44.061-35.846-79.908-79.908-79.908z" fill="#b40042"/><path d="m367.408 67.937h30v30h-30z" fill="#9ee2f8"/><path d="m132.684 77.063c-44.062 0-79.908 35.847-79.908 79.908 0 64.771 68.407 113.292 71.319 115.326l9.254 6.463 8.772-7.102c2.878-2.329 70.471-57.702 70.471-114.687 0-44.061-35.847-79.908-79.908-79.908z" fill="#ff415b"/><path d="m122.18 345h-71.518c13.685 77.216 71.823 139.27 146.93 158.672v-83.26c0-41.649-33.763-75.412-75.412-75.412z" fill="#00cc76"/><path d="m117.592 145h30v30h-30z" fill="#e7f9fb"/><path d="m247.592 317.936h31.989 167.84c0-.003 0-.006 0-.01 0-.003 0-.007 0-.01.049-1.247.088-2.497.118-3.749.029-1.387.053-2.774.053-4.167 0-110.28-89.72-200-200-200v91.697z" fill="#00aa63"/><path d="m382.412 314.91c0 56.98-67.6 112.36-70.47 114.69l-8.78 7.1-9.25-6.47c-1.72-1.2-26.46-18.74-46.32-46.3l-13.75-65.994 13.75-61.036c14.33-13.57 33.67-21.9 54.91-21.9 44.06 0 79.91 35.85 79.91 79.91z" fill="#b40042"/><path d="m247.592 256.9v127.03c-13.65-18.95-25-42.63-25-69.02 0-22.82 9.61-43.43 25-58.01z" fill="#ff415b"/><path d="m287.408 302.937h30v30h-30z" fill="#9ee2f8"/></g></svg>